# xmcd CD database file
#
# Track frame offsets:
#	150
#	23020
#	47207
#	66560
#	87075
#	110467
#	130810
#	150160
#
# Disc length: 2376 seconds
#
# Revision: 2
# Processed by: cddbd v1.5.2PL0 Copyright (c) Steve Scherf et al.
# Submitted via: CDex 1.70beta2
#
DISCID=5e094608
DTITLE=甲斐バンド - REPEAT and FADE [CD2]
DYEAR=1986
DGENRE=Rock
TTITLE0=Funky New Year
TTITLE1=ジェシー (摩天楼パッション)
TTITLE2=Run To Zero
TTITLE3=悪魔と踊れ
TTITLE4=ハート
TTITLE5=オクトーバー・ムーン
TTITLE6=天使(エンジェル)
TTITLE7=ALL DOWN THE LINE - 25時の追跡
EXTD=YEAR: 1986
EXTT0=
EXTT1=
EXTT2=
EXTT3=
EXTT4=
EXTT5=
EXTT6=
EXTT7=
PLAYORDER=
